<?xml version="1.0" standalone="no"?>
<!DOCTYPE svg PUBLIC "-//W3C//DTD SVG 20010904//EN"
 "http://www.w3.org/TR/2001/REC-SVG-20010904/DTD/svg10.dtd">
<svg version="1.0" xmlns="http://www.w3.org/2000/svg"
 width="512.000000pt" height="512.000000pt" viewBox="0 0 512.000000 512.000000"
 preserveAspectRatio="xMidYMid meet">

<g transform="translate(0.000000,512.000000) scale(0.100000,-0.100000)"
fill="#000000" stroke="none">
<path d="M3562 5108 c-7 -7 -12 -21 -12 -33 0 -45 0 -45 476 -45 l453 0 26
-22 c25 -23 30 -42 27 -105 l-2 -33 -471 0 c-305 0 -477 -4 -490 -10 -22 -12
-26 -59 -7 -78 9 -9 131 -12 489 -12 l477 0 4 -80 3 -80 -480 0 c-361 0 -484
-3 -493 -12 -19 -19 -15 -66 7 -78 13 -6 185 -10 490 -10 l471 0 0 -80 0 -80
-478 0 c-503 0 -502 0 -502 -45 0 -45 -2 -45 508 -45 l484 0 -6 -22 c-3 -13
-6 -49 -6 -80 l0 -58 -471 0 c-305 0 -477 -4 -490 -10 -22 -12 -26 -59 -7 -78
9 -9 131 -12 489 -12 l476 0 6 -53 c3 -29 3 -65 0 -80 l-5 -27 -477 0 c-358 0
-480 -3 -489 -12 -19 -19 -15 -66 7 -78 13 -6 185 -10 490 -10 l471 0 0 -80 0
-80 -478 0 c-358 0 -481 -3 -490 -12 -7 -7 -12 -25 -12 -40 0 -22 6 -31 26
-38 17 -7 200 -9 490 -8 l464 3 0 -80 0 -80 -462 3 c-502 3 -518 1 -518 -47 0
-15 5 -32 12 -39 9 -9 131 -12 489 -12 263 0 480 -3 482 -7 2 -5 2 -41 -1 -80
l-4 -73 -470 0 c-304 0 -476 -4 -489 -10 -22 -12 -26 -59 -7 -78 9 -9 132 -12
490 -12 l478 0 2 -52 c3 -84 0 -101 -21 -121 -18 -19 -37 -19 -470 -18 -308 2
-457 -1 -471 -9 -22 -12 -27 -49 -8 -68 7 -7 26 -12 44 -12 58 0 198 -31 271
-60 216 -87 368 -256 428 -478 35 -133 35 -370 1 -555 -9 -45 -38 -165 -66
-267 -91 -335 -125 -561 -125 -840 l0 -195 33 -67 c88 -179 298 -270 481 -208
117 39 191 106 245 220 30 63 31 68 30 205 -1 199 -20 350 -108 850 -45 255
-59 416 -60 650 0 231 13 366 45 471 12 39 56 118 123 221 126 193 142 224
161 305 22 96 22 1726 0 1813 -46 177 -201 322 -379 354 -88 16 -1108 15
-1124 -1z"/>
<path d="M396 5037 c-155 -315 -163 -735 -24 -1292 131 -524 432 -1227 828
-1935 133 -237 163 -286 168 -269 3 8 42 119 87 247 l82 233 -545 1544 c-300
850 -548 1545 -552 1545 -4 0 -24 -33 -44 -73z"/>
<path d="M2074 2845 l-799 -2265 -7 77 c-21 219 -142 406 -327 502 -108 56
-191 74 -316 69 -320 -15 -566 -257 -583 -575 -6 -114 9 -194 54 -292 106
-230 344 -374 589 -358 94 7 199 37 273 79 63 36 159 122 194 175 648 977 954
1489 1252 2093 562 1138 756 1983 580 2534 -25 80 -86 210 -102 220 -5 3 -369
-1014 -808 -2259z m-367 -1487 c32 -16 48 -70 31 -105 -34 -72 -143 -63 -163
14 -9 38 13 83 49 98 30 13 43 12 83 -7z m-882 -383 c79 -38 149 -109 188
-193 29 -61 32 -75 32 -167 0 -88 -3 -107 -27 -158 -38 -80 -117 -160 -197
-200 -61 -30 -73 -32 -166 -32 -92 0 -106 3 -167 32 -84 39 -155 109 -193 188
-40 84 -47 223 -16 306 41 107 121 190 228 235 51 22 70 24 158 21 85 -3 109
-7 160 -32z"/>
<path d="M2522 1216 c-164 -42 -335 -180 -404 -326 -40 -83 -56 -144 -66 -244
l-7 -67 -70 200 c-38 110 -72 198 -76 195 -4 -2 -28 -38 -54 -80 l-47 -76 164
-246 c90 -136 179 -271 197 -299 75 -120 236 -226 391 -259 315 -67 641 144
716 462 24 103 15 257 -20 349 -68 179 -202 310 -378 372 -89 32 -260 41 -346
19z m319 -243 c155 -77 246 -250 219 -418 -44 -269 -342 -416 -583 -287 -68
36 -150 129 -178 199 -35 88 -34 227 3 305 36 77 70 121 129 164 78 57 138 75
249 72 85 -3 103 -7 161 -35z"/>
</g>
</svg>
